<svg width="2391" height="444" viewBox="0 0 2391 444" fill="none" xmlns="http://www.w3.org/2000/svg">
<path d="M1925.37 0C2009.97 0 2075.48 19.6016 2075.48 94.9131V151.655H1967.16V70.6689C1967.16 50.5515 1965.09 24.2441 1925.37 24.2441C1887.2 24.2443 1877.92 50.0358 1877.92 75.3115V367.272C1877.92 393.064 1887.2 418.856 1925.37 418.856C1964.58 418.856 1967.16 392.033 1967.16 371.915V290.93H2075.48V347.671C2075.48 422.982 2009.97 443.101 1925.37 443.101C1841.29 443.101 1769.08 426.077 1769.08 347.671C1769.08 289.382 1769.59 163.003 1769.59 95.4287C1769.59 17.0225 1841.29 4.94379e-05 1925.37 0ZM212.523 382.748L317.237 5.1582H362.114L209.944 437.426H126.379L0 5.1582H111.936L212.523 382.748ZM516.736 437.426H406.348V5.1582H516.736V437.426ZM854.05 5.1582C951.026 5.15822 997.452 45.393 998.483 120.188V321.88C998.483 398.739 952.573 437.426 854.565 437.426H677.119V5.1582H854.05ZM1366.35 437.426H1256.47L1225.01 322.396L1094.5 318.784L1065.1 437.426H1018.68L1161.05 5.1582H1242.03L1366.35 437.426ZM1700.61 354.377L1675.34 5.1582H1718.15V437.426H1627.88L1420 49.0039L1448.89 437.426H1403.49V5.1582H1512.33L1700.61 354.377ZM2390.01 38.1719L2234.23 29.4023V200.143L2347.72 195.501V229.029L2234.23 224.903V412.666L2390.01 403.896V437.426H2124.88V5.1582H2390.01V38.1719ZM790.087 413.182H843.733C882.421 413.181 888.61 381.716 889.126 359.02V83.5645C888.61 59.8363 882.42 28.887 843.218 28.8867H790.087V413.182ZM1100.69 293.509L1216.76 290.414L1156.92 71.1846L1100.69 293.509Z" fill="white"/>
</svg>
